<?xml version="1.0" encoding="UTF-8"?>
<svg id="FilamentSpool" xmlns="http://www.w3.org/2000/svg" viewBox="0 0 11.3 11.3">
  <defs>
    <style>
      .cls-1 {
        fill: #565555;
      }

      .cls-1, .cls-2 {
        stroke-width: 0px;
      }

      .cls-2 {
        fill: #f26936;
      }
    </style>
  </defs>
  <g id="Vector">
    <path class="cls-1" d="M5.65,0C2.53,0,0,2.53,0,5.65s2.53,5.65,5.65,5.65,5.65-2.53,5.65-5.65S8.77,0,5.65,0ZM5.65,7.15c-.83,0-1.5-.67-1.5-1.5s.67-1.5,1.5-1.5,1.5.67,1.5,1.5-.67,1.5-1.5,1.5Z"/>
    <path class="cls-2" d="M.86,5.65l.04,5.06c0,.21.18.38.39.37.2-.01.35-.19.35-.38v-2.44c1.16,1.78,3.48,2.75,5.89,1.82,1.15-.44,2.07-1.35,2.53-2.49,1.36-3.44-1.14-6.72-4.41-6.72C3.01.86.86,3.01.86,5.65c0,.19,0,0,0,.52M5.65,7.66c-1.11,0-2.01-.9-2.01-2.01s.9-2.01,2.01-2.01,2.01.9,2.01,2.01-.9,2.01-2.01,2.01Z"/>
  </g>
</svg>