<?xml version="1.0" encoding="UTF-8"?>
<svg id="InputShaping" xmlns="http://www.w3.org/2000/svg" viewBox="0 0 16 16">
  <defs>
    <style>
      .cls-1 {
        fill: #fff;
      }

      .cls-1, .cls-2 {
        stroke-width: 0px;
      }

      .cls-2 {
        fill: #f26936;
      }
    </style>
  </defs>
  <g id="Vector">
    <rect class="cls-1" x="0" width="16" height="16" rx="1.91" ry="1.91"/>
    <g>
      <path class="cls-2" d="M2.7,2.61h2.19v10.83h-2.19V2.61Z"/>
      <path class="cls-2" d="M8.27,10.37c0,.25.02.48.06.69.04.21.12.38.23.52.11.14.26.25.45.33.19.08.42.12.71.12.33,0,.63-.11.9-.33.27-.22.4-.55.4-1.01,0-.24-.03-.45-.1-.63-.07-.18-.17-.34-.33-.48-.15-.14-.35-.27-.6-.39-.25-.12-.55-.24-.92-.36-.49-.16-.91-.34-1.26-.53-.35-.19-.65-.42-.89-.68-.24-.26-.41-.56-.52-.9-.11-.34-.17-.73-.17-1.18,0-1.07.3-1.87.9-2.4.6-.53,1.42-.79,2.46-.79.49,0,.93.05,1.34.16.41.11.76.28,1.06.52.3.24.53.54.7.91.17.37.25.81.25,1.33v.3h-2.09c0-.52-.09-.91-.27-1.19-.18-.28-.49-.42-.91-.42-.24,0-.45.04-.61.11-.16.07-.29.16-.39.28-.1.12-.16.25-.2.4-.04.15-.05.31-.05.47,0,.33.07.61.21.84s.45.44.91.63l1.68.73c.41.18.75.37,1.02.57.26.2.47.41.63.64.16.23.27.48.33.75.06.27.09.58.09.91,0,1.14-.33,1.98-.99,2.5-.66.52-1.59.78-2.77.78s-2.12-.27-2.65-.8c-.53-.54-.8-1.31-.8-2.31v-.44h2.19v.32Z"/>
    </g>
  </g>
</svg>