<?xml version="1.0" encoding="UTF-8"?>
<svg id="Nozzle" xmlns="http://www.w3.org/2000/svg" viewBox="0 0 16 15.41">
  <defs>
    <style>
      .cls-1 {
        fill: #fff;
        stroke-width: 0px;
      }
    </style>
  </defs>
  <g id="Vector">
    <path class="cls-1" d="M13.43,5.05s-.07-.03-.07-.07V.08s-.03-.07-.07-.07h-1.23s-.07.03-.07.07v4.9s-.03.07-.07.07h-7.88s-.07-.03-.07-.07V.07s-.03-.07-.07-.07h-1.23s-.07.03-.07.07v4.91s-.03.07-.07.07H.07s-.07.03-.07.07v6.19s.03.07.07.07h2.51s.09.02.11.05l3.95,3.95s.08.05.11.05h2.66s.07,0,.07,0,0,0,0,0,.02-.02.05-.04l3.95-3.95s.08-.05.11-.05h2.34s.07-.03.07-.07v-6.21s-.03-.05-.07-.05h-2.5ZM5.06,10.3s-.07-.03-.07-.07v-4.04s.03-.07.07-.07h5.88s.07.03.07.07v4.04s-.03.07-.07.07h-5.88ZM1,6.19s.03-.07.07-.07h2.86s.07.03.07.07v4.04s-.03.07-.07.07H1.06s-.07-.03-.07-.07v-4.04ZM8.51,14.33s-.08.05-.11.05h-.63s-.09-.02-.11-.05l-2.91-2.91s-.02-.05.02-.05h6.63s.05.02.02.05l-2.91,2.91ZM15,10.23s-.03.07-.07.07h-2.87s-.07-.03-.07-.07v-4.04s.03-.07.07-.07h2.87s.07.03.07.07v4.04Z"/>
  </g>
</svg>