<?xml version="1.0" encoding="UTF-8"?>
<svg id="Time" xmlns="http://www.w3.org/2000/svg" viewBox="0 0 16 16">
  <defs>
    <style>
      .cls-1 {
        fill: none;
        stroke: #fff;
        stroke-linecap: round;
        stroke-linejoin: round;
        stroke-width: .68px;
      }

      .cls-2 {
        fill: #fff;
        stroke-width: 0px;
      }
    </style>
  </defs>
  <g id="Vector">
    <path class="cls-2" d="M8,.96c.08,0,.15,0,.23,0,3.7.12,6.69,3.11,6.81,6.81.06,1.93-.64,3.75-1.98,5.13-1.34,1.38-3.13,2.14-5.06,2.14-.08,0-.15,0-.23,0-3.7-.12-6.69-3.11-6.81-6.81-.06-1.93.64-3.75,1.98-5.13C4.28,1.72,6.08.96,8,.96M8,0C3.49,0-.14,3.72,0,8.26c.13,4.19,3.55,7.6,7.73,7.73.09,0,.17,0,.26,0,4.51,0,8.14-3.72,8-8.26C15.86,3.55,12.45.14,8.26,0c-.09,0-.17,0-.26,0h0Z"/>
    <line class="cls-1" x1="8.06" y1="7.97" x2="12.17" y2="7.97"/>
    <line class="cls-1" x1="8.04" y1="7.97" x2="8.06" y2="2.22"/>
  </g>
</svg>